<!--?xml version="1.0" encoding="utf-8"?-->
<!-- Generator: Adobe Illustrator 18.1.1, SVG Export Plug-In . SVG Version: 6.00 Build 0)  -->

<svg version="1.1" id="_x31_0" xmlns="http://www.w3.org/2000/svg" xmlns:xlink="http://www.w3.org/1999/xlink" x="0px" y="0px" viewBox="0 0 512 512" style="enable-background:new 0 0 512 512;" xml:space="preserve">
<style type="text/css">
	.st0{fill:#374149;}
</style>
<g>
	<path class="st0" d="M503.444,223.58c14.758-28.297,7.175-48.672,1.285-58.282c-10.152-16.855-29.649-26.538-53.477-26.538
		c0,0-0.066,0-0.133,0c-2.777-21.118-10.695-40.207-23.422-56.047C404.682,54.08,368.604,38.306,326.092,38.24h-0.203
		c-82.586,0-126.586,45.965-134.574,140.461c-3.16,37.379,5.398,77.715,16.586,112.36c3.657,11.562,7.543,22.39,11.286,32.114
		c-0.223,0.206-0.454,0.406-0.657,0.656c-8.461,9.41-12.59,22-11.37,34.594l6.09,60.313c2.371,23.015,21.527,40.344,44.676,40.344
		h155.422c23.153,0,42.309-17.329,44.676-40.344l6.094-60.313c1.219-12.594-2.91-25.183-11.371-34.594
		c-2.101-2.301-4.468-4.398-6.972-6.226l8.664-29.176C466.213,277.87,486.049,256.885,503.444,223.58z M431.08,415.963
		c-0.945,9.137-8.527,16.039-17.734,16.039H257.924c-9.203,0-16.786-6.902-17.734-16.039l-6.024-59.301l-0.066-0.95
		c-0.476-5.074,1.082-9.949,4.535-13.738c1.555-1.762,3.45-3.184,5.481-4.13c2.371-1.152,5.012-1.762,7.718-1.762h10.086h143.031
		h14.489c1.082,0,2.098,0.066,3.113,0.27c3.859,0.68,7.379,2.641,10.086,5.622c1.828,2.027,3.179,4.332,3.859,6.902
		c0.676,2.167,0.878,4.468,0.676,6.835L431.08,415.963z M351.478,100.978c0.207,0.305,0.398,0.496,0.61,0.844
		c-18.726,4.535-37.457,12.246-55.512,23.062c-17.453,10.43-32.508,23.039-45.117,36.785c-2.676,2.871-5.379,5.719-7.887,8.738
		c-1.402-56.25,12.562-75.266,47.726-84.242c22.966-5.863,44.946,0.406,56.454,10.762
		C348.631,97.748,349.994,99.061,351.478,100.978z" style="fill: rgb(0, 0, 0);"></path>
	<polygon class="st0" points="310.209,348.783 310.318,348.627 268.619,348.627 251.373,348.627 249.69,348.611 249.694,348.627 
		249.666,348.627 249.533,348.627 253.931,391.811 255.76,410.154 268.01,410.154 280.603,391.811 292.244,374.889 303.889,357.967 
		307.939,352.084 310.318,348.783 	" style="fill: rgb(0, 0, 0);"></polygon>
	<path class="st0" d="M190.412,439.158c-0.074-0.21-0.172-0.418-0.242-0.633l-0.011,0.008c-0.02-0.05-0.043-0.098-0.059-0.149
		l-18.957,9.406c-7.446,3.657-16.379,1.153-20.782-5.82l-28.766-45.555l-0.476-0.746c-2.438-3.859-3.114-8.461-1.829-12.93
		c0.61-2.031,1.493-3.926,2.778-5.481c1.488-1.898,3.383-3.523,5.481-4.539l8.191-4.125l41.77-20.785
		c-0.746-12.454,2.027-24.707,8.054-35.536c-17.941-48.469-25.386-91.726-22.274-128.75c0.543-6.566,1.29-12.797,2.234-18.821
		c2.778-23.488,7.786-43.527,14.555-60.586c-3.926-2.703-8.055-5.008-12.387-6.969c-9.957-4.586-20.531-7.293-31.426-8.465
		c-0.102-0.012-0.203-0.027-0.309-0.039c-3.519-0.367-7.07-0.539-10.656-0.551c-0.141-0.003-0.274-0.023-0.414-0.023
		c-0.09,0-0.175,0.016-0.266,0.016c-4.57,0.011-9.171,0.289-13.816,0.871c-0.062,0.007-0.125,0.011-0.187,0.019
		c-14.188,1.801-28.634,6.098-42.906,13.18h-0.137C0.83,135.463-16.225,190.291,15.318,269.901c0.825,2.07,1.887,4.082,2.797,6.133
		c0.477,1.074,0.966,2.14,1.466,3.206c2.199,4.692,4.59,9.309,7.191,13.867c0.011,0.028,0.027,0.051,0.042,0.074
		c18.466,32.336,45.91,61.094,69.258,81.977c-0.066,0.34-0.203,0.68-0.336,1.016c-3.047,11.035-1.285,22.882,4.738,32.562
		l29.242,46.301c1.89,2.977,4.195,5.504,6.656,7.813c0.008,0.011,0.019,0.019,0.027,0.027c3.695,3.461,7.91,6.129,12.485,7.969
		c0.129,0.054,0.258,0.098,0.39,0.148c4.633,1.813,9.543,2.746,14.558,2.758c0.031,0,0.062,0.007,0.094,0.007
		c0.035,0,0.066-0.004,0.098-0.004c4.504-0.011,9.02-0.773,13.446-2.339c0.164-0.059,0.324-0.13,0.488-0.188
		c1.367-0.508,2.75-0.91,4.082-1.57l16.285-8.14l3.63-1.778c-0.008-0.008-0.012-0.02-0.02-0.027l0.145-0.074
		C197.174,453.619,193.182,446.706,190.412,439.158z" style="fill: rgb(0, 0, 0);"></path>
</g>
</svg>
